<?xml version="1.0" encoding="utf-8"?>
<!-- Generator: Adobe Illustrator 19.1.0, SVG Export Plug-In . SVG Version: 6.00 Build 0)  -->
<svg version="1.1" id="Ebene_1" xmlns="http://www.w3.org/2000/svg" xmlns:xlink="http://www.w3.org/1999/xlink" x="0px" y="0px"
	 viewBox="-7 12 16 16" style="enable-background:new -7 12 16 16;" xml:space="preserve">
<style type="text/css">
	.st0{fill:#FFFFFF;}
	.st1{fill:#999999;}
	.st2{fill:#FF8700;}
	.st3{fill:#5599FF;}
</style>
<path class="st0" d="M-5,14H9v14H-5V14z"/>
<path class="st1" d="M-6,13v15H9V13H-6z M-5,14H8v13H-5V14z"/>
<rect x="1" y="24" class="st2" width="1" height="1"/>
<rect x="-1" y="24" class="st2" width="1" height="1"/>
<rect x="3" y="24" class="st2" width="1" height="1"/>
<path class="st1" d="M-4,16H7v7H-4V16z"/>
<path class="st3" d="M-3,17h9v5h-9V17z"/>
<path class="st0" d="M2,21h-3l0.8-1l0.8-1l0.8,1L2,21z"/>
<path class="st0" d="M3,21H0.3L1,20.3l0.7-0.7l0.7,0.7L3,21z"/>
<ellipse class="st0" cx="3.5" cy="18.5" rx="0.5" ry="0.5"/>
</svg>
