<?xml version="1.0" encoding="utf-8"?>
<!-- Generator: Adobe Illustrator 19.1.0, SVG Export Plug-In . SVG Version: 6.00 Build 0)  -->
<svg version="1.1" id="Ebene_1" xmlns="http://www.w3.org/2000/svg" xmlns:xlink="http://www.w3.org/1999/xlink" x="0px" y="0px"
	 viewBox="-7 9 16 16" style="enable-background:new -7 9 16 16;" xml:space="preserve">
<style type="text/css">
	.st0{fill:#4C7E3A;}
	.st1{fill:#5599FF;}
	.st2{fill:#FF8700;}
	.st3{fill:#999999;}
	.st4{fill:#D04038;}
</style>
<path class="st0" d="M-4,12H7v5.3L-4,20V12z"/>
<path class="st1" d="M-4,20l11-3v6H-4V20z"/>
<polygon class="st2" points="-4,20 7,17 7,18 -4,21 "/>
<path class="st3" d="M-6,10v15H9V10H-6z M-5,11H8v13H-5V11z"/>
<polygon class="st2" points="-4,12 -3,12 3,19 2,19 "/>
<path class="st4" d="M4.1,12.8c0-0.8-0.7-1.5-1.5-1.5S1.1,12,1.1,12.8c0,0.4,0.1,0.7,0.4,1L2,15l0.6,1.2L3.2,15l0.6-1.2
	C3.9,13.5,4.1,13.2,4.1,12.8z M2.6,12.1c0.4,0,0.8,0.3,0.8,0.8S3,13.6,2.6,13.6s-0.8-0.3-0.8-0.8S2.2,12.1,2.6,12.1z"/>
</svg>
